<svg xmlns="http://www.w3.org/2000/svg" xmlns:xlink="http://www.w3.org/1999/xlink" fill="none" version="1.1" width="1024" height="1024" viewBox="0 0 1024 1024"><defs><clipPath id="master_svg0_1_9"><rect x="0" y="0" width="1024" height="1024" rx="160"/></clipPath></defs><g clip-path="url(#master_svg0_1_9)"><rect x="0" y="0" width="1024" height="1024" rx="160" fill="#000000" fill-opacity="1"/><g><rect x="40" y="531" width="944" height="341" rx="64" fill="#00FFA2" fill-opacity="1"/></g><g><path d="M125.97699,138.13000499999998L331.633,138.13000499999998L326.19901,184.10998999999998L169.867,184.10998999999998L158.16299,277.32399L299.86499,277.32399L294.431,323.30399L152.729,323.30399L136.845,452.048L87.520996,452.048L125.97699,138.13000499999998ZM399.76703,452.048Q368.41702,452.048,349.60703,434.28299Q330.797,416.51801,330.797,388.09399Q330.797,381.82401,331.21503,378.48001Q334.97702,352.564,344.591,337.30701Q354.20502,322.04999,372.388,315.153Q390.57101,308.256,420.24902,308.256L490.47302,308.256L490.89102,304.91200000000003Q491.30902,302.82199,491.30902,299.06Q491.30902,282.75800000000004,480.44101,272.726Q469.573,262.69399999999996,446.58301,262.69399999999996L435.71503,262.69399999999996Q398.513,262.69399999999996,368.83502,264.784L375.10501,222.14799L387.22702,221.312Q393.91501,220.894,410.84402,220.058Q427.77301,219.222,440.31302,219.222L451.599,219.222Q494.65302,219.222,516.80701,239.70399Q538.961,260.18599,538.961,294.46199Q538.961,298.224,538.125,307.41999999999996L520.987,452.048L399.76703,452.048ZM378.867,383.496Q378.867,395.61801,385.76401,402.09698Q392.66101,408.57599,405.61902,408.57599L478.35101,408.57599L485.45703,350.056L416.06903,349.638Q400.185,349.22,390.78003,355.69901Q381.375,362.17801,379.285,378.48001L378.867,383.496ZM628.83105,453.72Q590.375,452.884,562.36902,450.37601L568.63904,405.23199Q609.60303,408.99399,634.26501,409.82999L648.47705,409.82999Q675.229,409.82999,685.888,403.142Q696.547,396.45401,699.05505,383.914Q699.47302,381.82401,699.47302,378.06201Q699.47302,367.612,696.12903,364.26801Q693.203,359.66998,686.51501,357.99799Q679.82703,356.32599,661.01703,354.23599L651.40302,352.98199Q629.66699,351.31,610.021,345.45801Q594.55505,339.60599,587.03101,328.52899Q579.50702,317.452,579.50702,299.06Q579.50702,295.29799,580.34302,286.10199Q583.26904,260.60399,594.97302,246.183Q606.677,231.76199,627.57703,225.49199Q648.47705,219.222,681.49902,219.222L698.63702,219.222L757.57501,219.64L752.14099,263.948L676.065,263.948Q657.67303,263.948,648.05902,265.82899Q638.44501,267.70999,634.05603,272.099Q629.66699,276.48798999999997,628.41302,284.84799Q627.995,286.93799,627.995,290.28200000000004Q627.995,296.97,631.75702,301.56799Q635.93701,306.584,644.08801,308.46500000000003Q652.23901,310.34599000000003,674.39301,312.85400000000004Q700.72705,315.36199999999997,717.44702,320.79598999999996Q732.07703,325.812,739.81006,337.93399Q747.54303,350.056,747.54303,369.284Q747.54303,378.48001,746.70703,383.496Q741.69104,422.37,717.44702,438.04501Q693.203,453.72,643.04303,453.72L628.83105,453.72ZM773.04102,263.948L778.47504,219.222L831.14301,219.222L838.24902,159.865997L886.31903,159.865997L879.21301,219.222L950.27301,219.222L944.83905,263.948L873.77905,263.948L860.82104,370.53799Q860.40302,373.46399,860.40302,378.48001Q860.40302,406.48599,887.99103,406.48599Q899.69501,406.48599,929.79102,405.64999L924.35706,451.21201Q907.63702,452.048,882.55701,452.048Q848.28101,452.048,829.47101,436.582Q810.66101,421.116,810.66101,390.60199Q810.66101,387.258,811.49701,378.06201L825.29102,263.948L773.04102,263.948Z" fill="#FFFFFF" fill-opacity="1"/></g><g><path d="M221.2225,589.214996Q260.69049,589.514008,279.22852,606.407501Q297.76651,623.30101,297.76651,659.48Q297.76651,668.74901,296.27148,682.20401L291.7865,720.77499Q285.2085,769.51199,261.88651,791.48849Q238.5645,813.4649999999999,193.4155,813.76401L101.02451,813.76401L128.5325,589.214996L221.2225,589.214996ZM197.90051,780.87399Q225.1095,780.87399,238.5645,767.12Q252.0195,753.366,255.90651,722.569L261.28851,680.41Q262.4845,668.45,262.4845,663.6659999999999Q262.4845,641.839005,252.16901,631.972Q241.8535,622.104996,218.2325,622.104996L159.92751,622.104996L140.19351,780.87399L197.90051,780.87399ZM322.28448,718.0840000000001Q330.95551,646.025009,401.5195,646.025009L415.87149,646.025009Q477.7645,646.025009,477.7645,702.8349900000001Q477.7645,709.71201,476.86749,717.785L473.8775,742.9010000000001Q465.20648,814.9599900000001,394.64249,814.9599900000001L380.2905,814.9599900000001Q318.39749,814.9599900000001,318.39749,758.14999Q318.39749,751.27301,319.29449,743.2L322.28448,718.0840000000001ZM398.52948,782.967Q434.40948,782.967,439.19348,743.798L442.48248,716.888Q443.08051,710.908,443.08051,708.51599Q443.08051,678.01801,411.9845,678.01801L397.63251,678.01801Q361.7525,678.01801,356.96851,717.18701L353.6795,744.097Q353.08148,750.077,353.08148,752.46899Q353.08148,782.967,384.17749,782.967L398.52948,782.967ZM503.47852,647.221008L537.86353,647.221008L554.00952,782.668L559.69049,782.668L605.73651,662.17101L650.28748,662.17101L667.62952,782.668L673.31049,782.668L723.24353,647.221008L757.62854,647.221008L701.4165,801.20599Q696.93152,813.76401,684.07452,813.76401L653.27747,813.76401Q646.69952,813.76401,642.51349,810.02649Q638.32751,806.289,637.43054,799.11301L624.27454,698.649L586.60052,801.20599Q582.11548,813.16599,570.15552,813.76401L538.46149,813.76401Q531.88348,813.76401,527.69751,810.02649Q523.51147,806.289,522.6145,799.11301L503.47852,647.221008ZM811.74756,679.2139999999999L795.60156,813.76401L761.21655,813.76401L781.54852,647.221008L856.59753,647.221008Q918.49054,647.221008,918.49054,704.03101Q918.49054,710.908,917.59351,718.981L905.9325,813.76401L871.54755,813.76401L883.2085,718.0840000000001Q883.80652,712.104,883.80652,709.71201Q883.80652,679.2139999999999,852.71051,679.2139999999999L811.74756,679.2139999999999Z" fill="#000000" fill-opacity="1"/></g></g></svg>